<mxfile host="app.diagrams.net" modified="2024-05-28T17:45:51.272Z" agent="Mozilla/5.0 (Windows NT 10.0; Win64; x64) AppleWebKit/537.36 (KHTML, like Gecko) Chrome/125.0.0.0 Safari/537.36" etag="veRHl1EKmf6TuTA_77Zn" version="24.4.9" type="github">
  <diagram name="Page-1" id="yaThXlPo61zniZGkY3xH">
    <mxGraphModel dx="1050" dy="522" grid="1" gridSize="10" guides="1" tooltips="1" connect="1" arrows="1" fold="1" page="1" pageScale="1" pageWidth="850" pageHeight="1100" math="0" shadow="0">
      <root>
        <mxCell id="0" />
        <mxCell id="1" parent="0" />
        <mxCell id="VQXBPR0LTiFQAIT9ZRRq-6" style="edgeStyle=orthogonalEdgeStyle;curved=1;rounded=0;orthogonalLoop=1;jettySize=auto;html=1;exitX=1;exitY=0.5;exitDx=0;exitDy=0;entryX=0;entryY=0.5;entryDx=0;entryDy=0;" edge="1" parent="1" source="VQXBPR0LTiFQAIT9ZRRq-1" target="VQXBPR0LTiFQAIT9ZRRq-5">
          <mxGeometry relative="1" as="geometry" />
        </mxCell>
        <mxCell id="VQXBPR0LTiFQAIT9ZRRq-13" value="" style="edgeStyle=orthogonalEdgeStyle;curved=1;rounded=0;orthogonalLoop=1;jettySize=auto;html=1;" edge="1" parent="1" source="VQXBPR0LTiFQAIT9ZRRq-1" target="VQXBPR0LTiFQAIT9ZRRq-11">
          <mxGeometry relative="1" as="geometry" />
        </mxCell>
        <mxCell id="VQXBPR0LTiFQAIT9ZRRq-1" value="Data Extraction" style="rounded=0;whiteSpace=wrap;html=1;" vertex="1" parent="1">
          <mxGeometry x="20" y="180" width="120" height="60" as="geometry" />
        </mxCell>
        <mxCell id="VQXBPR0LTiFQAIT9ZRRq-3" value="&lt;p style=&quot;line-height: 130%;&quot;&gt;Hosting&lt;/p&gt;" style="rounded=0;whiteSpace=wrap;html=1;" vertex="1" parent="1">
          <mxGeometry x="650" y="40" width="120" height="60" as="geometry" />
        </mxCell>
        <mxCell id="VQXBPR0LTiFQAIT9ZRRq-8" value="" style="edgeStyle=orthogonalEdgeStyle;curved=1;rounded=0;orthogonalLoop=1;jettySize=auto;html=1;" edge="1" parent="1" source="VQXBPR0LTiFQAIT9ZRRq-4" target="VQXBPR0LTiFQAIT9ZRRq-3">
          <mxGeometry relative="1" as="geometry" />
        </mxCell>
        <mxCell id="VQXBPR0LTiFQAIT9ZRRq-4" value="Data Loading" style="rounded=0;whiteSpace=wrap;html=1;" vertex="1" parent="1">
          <mxGeometry x="570" y="180" width="120" height="60" as="geometry" />
        </mxCell>
        <mxCell id="VQXBPR0LTiFQAIT9ZRRq-7" value="" style="edgeStyle=orthogonalEdgeStyle;curved=1;rounded=0;orthogonalLoop=1;jettySize=auto;html=1;" edge="1" parent="1" source="VQXBPR0LTiFQAIT9ZRRq-5" target="VQXBPR0LTiFQAIT9ZRRq-4">
          <mxGeometry relative="1" as="geometry" />
        </mxCell>
        <mxCell id="VQXBPR0LTiFQAIT9ZRRq-5" value="Data Transformation" style="rounded=0;whiteSpace=wrap;html=1;" vertex="1" parent="1">
          <mxGeometry x="390" y="180" width="120" height="60" as="geometry" />
        </mxCell>
        <mxCell id="VQXBPR0LTiFQAIT9ZRRq-9" value="Web Scraping" style="text;html=1;align=center;verticalAlign=middle;resizable=0;points=[];autosize=1;strokeColor=none;fillColor=none;" vertex="1" parent="1">
          <mxGeometry x="20" y="248" width="100" height="30" as="geometry" />
        </mxCell>
        <mxCell id="VQXBPR0LTiFQAIT9ZRRq-10" value="Optical Character recognition (OCR&lt;span style=&quot;background-color: initial;&quot;&gt;)&lt;/span&gt;" style="text;html=1;align=center;verticalAlign=middle;whiteSpace=wrap;rounded=0;" vertex="1" parent="1">
          <mxGeometry x="30" y="290" width="110" height="30" as="geometry" />
        </mxCell>
        <mxCell id="VQXBPR0LTiFQAIT9ZRRq-11" value="Data Cleaning" style="rounded=1;whiteSpace=wrap;html=1;" vertex="1" parent="1">
          <mxGeometry x="190" y="40" width="120" height="60" as="geometry" />
        </mxCell>
        <mxCell id="VQXBPR0LTiFQAIT9ZRRq-26" value="Transliteration&lt;div&gt;&lt;br&gt;&lt;/div&gt;" style="shape=note;size=20;whiteSpace=wrap;html=1;" vertex="1" parent="1">
          <mxGeometry x="240" y="170" width="100" height="100" as="geometry" />
        </mxCell>
      </root>
    </mxGraphModel>
  </diagram>
</mxfile>
